<svg width="514" height="241" viewBox="0 0 514 241" fill="none" xmlns="http://www.w3.org/2000/svg">
<rect x="80" width="434" height="241" fill="#EEABAB"/>
<path d="M65.726 95.562H13.806C14.278 102.013 16.756 107.244 21.24 111.256C25.724 115.189 31.388 117.156 38.232 117.156C42.0867 117.156 45.6267 116.487 48.852 115.15C52.0773 113.734 54.87 111.689 57.23 109.014L61.95 114.442C59.1967 117.746 55.7353 120.263 51.566 121.994C47.4753 123.725 42.952 124.59 37.996 124.59C31.624 124.59 25.96 123.253 21.004 120.578C16.1267 117.825 12.3113 114.049 9.558 109.25C6.80467 104.451 5.428 99.0233 5.428 92.966C5.428 86.9087 6.726 81.4807 9.322 76.682C11.9967 71.8833 15.6153 68.1467 20.178 65.472C24.8193 62.7973 30.0113 61.46 35.754 61.46C41.4967 61.46 46.6493 62.7973 51.212 65.472C55.7747 68.1467 59.354 71.8833 61.95 76.682C64.546 81.402 65.844 86.83 65.844 92.966L65.726 95.562ZM35.754 68.658C29.7753 68.658 24.7407 70.5853 20.65 74.44C16.638 78.216 14.3567 83.172 13.806 89.308H57.82C57.2693 83.172 54.9487 78.216 50.858 74.44C46.846 70.5853 41.8113 68.658 35.754 68.658ZM65.726 171.562H13.806C14.278 178.013 16.756 183.244 21.24 187.256C25.724 191.189 31.388 193.156 38.232 193.156C42.0867 193.156 45.6267 192.487 48.852 191.15C52.0773 189.734 54.87 187.689 57.23 185.014L61.95 190.442C59.1967 193.746 55.7353 196.263 51.566 197.994C47.4753 199.725 42.952 200.59 37.996 200.59C31.624 200.59 25.96 199.253 21.004 196.578C16.1267 193.825 12.3113 190.049 9.558 185.25C6.80467 180.451 5.428 175.023 5.428 168.966C5.428 162.909 6.726 157.481 9.322 152.682C11.9967 147.883 15.6153 144.147 20.178 141.472C24.8193 138.797 30.0113 137.46 35.754 137.46C41.4967 137.46 46.6493 138.797 51.212 141.472C55.7747 144.147 59.354 147.883 61.95 152.682C64.546 157.402 65.844 162.83 65.844 168.966L65.726 171.562ZM35.754 144.658C29.7753 144.658 24.7407 146.585 20.65 150.44C16.638 154.216 14.3567 159.172 13.806 165.308H57.82C57.2693 159.172 54.9487 154.216 50.858 150.44C46.846 146.585 41.8113 144.658 35.754 144.658Z" fill="black"/>
<path d="M89.6228 124.59C87.8922 124.59 86.3975 123.961 85.1388 122.702C83.9588 121.443 83.3688 119.909 83.3688 118.1C83.3688 116.291 83.9588 114.796 85.1388 113.616C86.3975 112.357 87.8922 111.728 89.6228 111.728C91.3535 111.728 92.8482 112.357 94.1068 113.616C95.3655 114.796 95.9948 116.291 95.9948 118.1C95.9948 119.909 95.3655 121.443 94.1068 122.702C92.8482 123.961 91.3535 124.59 89.6228 124.59ZM136.341 124.59C131.306 124.59 126.468 123.882 121.827 122.466C117.264 120.971 113.685 119.123 111.089 116.92L114.865 110.312C117.461 112.357 120.725 114.049 124.659 115.386C128.592 116.645 132.683 117.274 136.931 117.274C142.595 117.274 146.764 116.409 149.439 114.678C152.192 112.869 153.569 110.351 153.569 107.126C153.569 104.845 152.821 103.075 151.327 101.816C149.832 100.479 147.944 99.4953 145.663 98.866C143.381 98.158 140.353 97.4893 136.577 96.86C131.542 95.916 127.491 94.972 124.423 94.028C121.355 93.0053 118.719 91.314 116.517 88.954C114.393 86.594 113.331 83.3293 113.331 79.16C113.331 73.968 115.494 69.72 119.821 66.416C124.147 63.112 130.165 61.46 137.875 61.46C141.887 61.46 145.899 62.0107 149.911 63.112C153.923 64.1347 157.227 65.5113 159.823 67.242L156.165 73.968C151.051 70.428 144.955 68.658 137.875 68.658C132.525 68.658 128.474 69.602 125.721 71.49C123.046 73.378 121.709 75.856 121.709 78.924C121.709 81.284 122.456 83.172 123.951 84.588C125.524 86.004 127.451 87.066 129.733 87.774C132.014 88.4033 135.161 89.072 139.173 89.78C144.129 90.724 148.101 91.668 151.091 92.612C154.08 93.556 156.637 95.1687 158.761 97.45C160.885 99.7313 161.947 102.878 161.947 106.89C161.947 112.318 159.665 116.645 155.103 119.87C150.619 123.017 144.365 124.59 136.341 124.59ZM214.959 61.46C222.747 61.46 228.922 63.7413 233.485 68.304C238.126 72.788 240.447 79.3567 240.447 88.01V124H232.069V88.836C232.069 82.3853 230.456 77.4687 227.231 74.086C224.006 70.7033 219.404 69.012 213.425 69.012C206.738 69.012 201.428 71.018 197.495 75.03C193.64 78.9633 191.713 84.4307 191.713 91.432V124H183.335V36.444H191.713V72.788C193.994 69.1693 197.141 66.3767 201.153 64.41C205.165 62.4433 209.767 61.46 214.959 61.46ZM294.693 124.59C288.714 124.59 283.326 123.253 278.527 120.578C273.728 117.825 269.952 114.049 267.199 109.25C264.446 104.451 263.069 99.0233 263.069 92.966C263.069 86.9087 264.446 81.4807 267.199 76.682C269.952 71.8833 273.728 68.1467 278.527 65.472C283.326 62.7973 288.714 61.46 294.693 61.46C300.672 61.46 306.06 62.7973 310.859 65.472C315.658 68.1467 319.394 71.8833 322.069 76.682C324.822 81.4807 326.199 86.9087 326.199 92.966C326.199 99.0233 324.822 104.451 322.069 109.25C319.394 114.049 315.658 117.825 310.859 120.578C306.06 123.253 300.672 124.59 294.693 124.59ZM294.693 117.156C299.098 117.156 303.032 116.173 306.493 114.206C310.033 112.161 312.786 109.289 314.753 105.592C316.72 101.895 317.703 97.686 317.703 92.966C317.703 88.246 316.72 84.0373 314.753 80.34C312.786 76.6427 310.033 73.8107 306.493 71.844C303.032 69.7987 299.098 68.776 294.693 68.776C290.288 68.776 286.315 69.7987 282.775 71.844C279.314 73.8107 276.56 76.6427 274.515 80.34C272.548 84.0373 271.565 88.246 271.565 92.966C271.565 97.686 272.548 101.895 274.515 105.592C276.56 109.289 279.314 112.161 282.775 114.206C286.315 116.173 290.288 117.156 294.693 117.156ZM142.218 200.59C137.183 200.59 132.345 199.882 127.704 198.466C123.141 196.971 119.562 195.123 116.966 192.92L120.742 186.312C123.338 188.357 126.602 190.049 130.536 191.386C134.469 192.645 138.56 193.274 142.808 193.274C148.472 193.274 152.641 192.409 155.316 190.678C158.069 188.869 159.446 186.351 159.446 183.126C159.446 180.845 158.698 179.075 157.204 177.816C155.709 176.479 153.821 175.495 151.54 174.866C149.258 174.158 146.23 173.489 142.454 172.86C137.419 171.916 133.368 170.972 130.3 170.028C127.232 169.005 124.596 167.314 122.394 164.954C120.27 162.594 119.208 159.329 119.208 155.16C119.208 149.968 121.371 145.72 125.698 142.416C130.024 139.112 136.042 137.46 143.752 137.46C147.764 137.46 151.776 138.011 155.788 139.112C159.8 140.135 163.104 141.511 165.7 143.242L162.042 149.968C156.928 146.428 150.832 144.658 143.752 144.658C138.402 144.658 134.351 145.602 131.598 147.49C128.923 149.378 127.586 151.856 127.586 154.924C127.586 157.284 128.333 159.172 129.828 160.588C131.401 162.004 133.328 163.066 135.61 163.774C137.891 164.403 141.038 165.072 145.05 165.78C150.006 166.724 153.978 167.668 156.968 168.612C159.957 169.556 162.514 171.169 164.638 173.45C166.762 175.731 167.824 178.878 167.824 182.89C167.824 188.318 165.542 192.645 160.98 195.87C156.496 199.017 150.242 200.59 142.218 200.59Z" fill="white"/>
</svg>
