<svg width="579" height="291" viewBox="0 0 579 291" fill="none" xmlns="http://www.w3.org/2000/svg">
<rect width="579" height="291" fill="#E5E5E5"/>
<rect width="579" height="291" fill="white"/>
<rect x="106" y="22" width="434" height="241" fill="#EEABAB"/>
<path d="M91.726 117.562H39.806C40.278 124.013 42.756 129.244 47.24 133.256C51.724 137.189 57.388 139.156 64.232 139.156C68.0867 139.156 71.6267 138.487 74.852 137.15C78.0773 135.734 80.87 133.689 83.23 131.014L87.95 136.442C85.1967 139.746 81.7353 142.263 77.566 143.994C73.4753 145.725 68.952 146.59 63.996 146.59C57.624 146.59 51.96 145.253 47.004 142.578C42.1267 139.825 38.3113 136.049 35.558 131.25C32.8047 126.451 31.428 121.023 31.428 114.966C31.428 108.909 32.726 103.481 35.322 98.682C37.9967 93.8833 41.6153 90.1467 46.178 87.472C50.8193 84.7973 56.0113 83.46 61.754 83.46C67.4967 83.46 72.6493 84.7973 77.212 87.472C81.7747 90.1467 85.354 93.8833 87.95 98.682C90.546 103.402 91.844 108.83 91.844 114.966L91.726 117.562ZM61.754 90.658C55.7753 90.658 50.7407 92.5853 46.65 96.44C42.638 100.216 40.3567 105.172 39.806 111.308H83.82C83.2693 105.172 80.9487 100.216 76.858 96.44C72.846 92.5853 67.8113 90.658 61.754 90.658ZM91.726 193.562H39.806C40.278 200.013 42.756 205.244 47.24 209.256C51.724 213.189 57.388 215.156 64.232 215.156C68.0867 215.156 71.6267 214.487 74.852 213.15C78.0773 211.734 80.87 209.689 83.23 207.014L87.95 212.442C85.1967 215.746 81.7353 218.263 77.566 219.994C73.4753 221.725 68.952 222.59 63.996 222.59C57.624 222.59 51.96 221.253 47.004 218.578C42.1267 215.825 38.3113 212.049 35.558 207.25C32.8047 202.451 31.428 197.023 31.428 190.966C31.428 184.909 32.726 179.481 35.322 174.682C37.9967 169.883 41.6153 166.147 46.178 163.472C50.8193 160.797 56.0113 159.46 61.754 159.46C67.4967 159.46 72.6493 160.797 77.212 163.472C81.7747 166.147 85.354 169.883 87.95 174.682C90.546 179.402 91.844 184.83 91.844 190.966L91.726 193.562ZM61.754 166.658C55.7753 166.658 50.7407 168.585 46.65 172.44C42.638 176.216 40.3567 181.172 39.806 187.308H83.82C83.2693 181.172 80.9487 176.216 76.858 172.44C72.846 168.585 67.8113 166.658 61.754 166.658Z" fill="black"/>
<path d="M115.623 146.59C113.892 146.59 112.398 145.961 111.139 144.702C109.959 143.443 109.369 141.909 109.369 140.1C109.369 138.291 109.959 136.796 111.139 135.616C112.398 134.357 113.892 133.728 115.623 133.728C117.354 133.728 118.848 134.357 120.107 135.616C121.366 136.796 121.995 138.291 121.995 140.1C121.995 141.909 121.366 143.443 120.107 144.702C118.848 145.961 117.354 146.59 115.623 146.59ZM162.341 146.59C157.306 146.59 152.468 145.882 147.827 144.466C143.264 142.971 139.685 141.123 137.089 138.92L140.865 132.312C143.461 134.357 146.725 136.049 150.659 137.386C154.592 138.645 158.683 139.274 162.931 139.274C168.595 139.274 172.764 138.409 175.439 136.678C178.192 134.869 179.569 132.351 179.569 129.126C179.569 126.845 178.821 125.075 177.327 123.816C175.832 122.479 173.944 121.495 171.663 120.866C169.381 120.158 166.353 119.489 162.577 118.86C157.542 117.916 153.491 116.972 150.423 116.028C147.355 115.005 144.719 113.314 142.517 110.954C140.393 108.594 139.331 105.329 139.331 101.16C139.331 95.968 141.494 91.72 145.821 88.416C150.147 85.112 156.165 83.46 163.875 83.46C167.887 83.46 171.899 84.0107 175.911 85.112C179.923 86.1347 183.227 87.5113 185.823 89.242L182.165 95.968C177.051 92.428 170.955 90.658 163.875 90.658C158.525 90.658 154.474 91.602 151.721 93.49C149.046 95.378 147.709 97.856 147.709 100.924C147.709 103.284 148.456 105.172 149.951 106.588C151.524 108.004 153.451 109.066 155.733 109.774C158.014 110.403 161.161 111.072 165.173 111.78C170.129 112.724 174.101 113.668 177.091 114.612C180.08 115.556 182.637 117.169 184.761 119.45C186.885 121.731 187.947 124.878 187.947 128.89C187.947 134.318 185.665 138.645 181.103 141.87C176.619 145.017 170.365 146.59 162.341 146.59ZM240.959 83.46C248.747 83.46 254.922 85.7413 259.485 90.304C264.126 94.788 266.447 101.357 266.447 110.01V146H258.069V110.836C258.069 104.385 256.456 99.4687 253.231 96.086C250.006 92.7033 245.404 91.012 239.425 91.012C232.738 91.012 227.428 93.018 223.495 97.03C219.64 100.963 217.713 106.431 217.713 113.432V146H209.335V58.444H217.713V94.788C219.994 91.1693 223.141 88.3767 227.153 86.41C231.165 84.4433 235.767 83.46 240.959 83.46ZM320.693 146.59C314.714 146.59 309.326 145.253 304.527 142.578C299.728 139.825 295.952 136.049 293.199 131.25C290.446 126.451 289.069 121.023 289.069 114.966C289.069 108.909 290.446 103.481 293.199 98.682C295.952 93.8833 299.728 90.1467 304.527 87.472C309.326 84.7973 314.714 83.46 320.693 83.46C326.672 83.46 332.06 84.7973 336.859 87.472C341.658 90.1467 345.394 93.8833 348.069 98.682C350.822 103.481 352.199 108.909 352.199 114.966C352.199 121.023 350.822 126.451 348.069 131.25C345.394 136.049 341.658 139.825 336.859 142.578C332.06 145.253 326.672 146.59 320.693 146.59ZM320.693 139.156C325.098 139.156 329.032 138.173 332.493 136.206C336.033 134.161 338.786 131.289 340.753 127.592C342.72 123.895 343.703 119.686 343.703 114.966C343.703 110.246 342.72 106.037 340.753 102.34C338.786 98.6427 336.033 95.8107 332.493 93.844C329.032 91.7987 325.098 90.776 320.693 90.776C316.288 90.776 312.315 91.7987 308.775 93.844C305.314 95.8107 302.56 98.6427 300.515 102.34C298.548 106.037 297.565 110.246 297.565 114.966C297.565 119.686 298.548 123.895 300.515 127.592C302.56 131.289 305.314 134.161 308.775 136.206C312.315 138.173 316.288 139.156 320.693 139.156ZM168.218 222.59C163.183 222.59 158.345 221.882 153.704 220.466C149.141 218.971 145.562 217.123 142.966 214.92L146.742 208.312C149.338 210.357 152.602 212.049 156.536 213.386C160.469 214.645 164.56 215.274 168.808 215.274C174.472 215.274 178.641 214.409 181.316 212.678C184.069 210.869 185.446 208.351 185.446 205.126C185.446 202.845 184.698 201.075 183.204 199.816C181.709 198.479 179.821 197.495 177.54 196.866C175.258 196.158 172.23 195.489 168.454 194.86C163.419 193.916 159.368 192.972 156.3 192.028C153.232 191.005 150.596 189.314 148.394 186.954C146.27 184.594 145.208 181.329 145.208 177.16C145.208 171.968 147.371 167.72 151.698 164.416C156.024 161.112 162.042 159.46 169.752 159.46C173.764 159.46 177.776 160.011 181.788 161.112C185.8 162.135 189.104 163.511 191.7 165.242L188.042 171.968C182.928 168.428 176.832 166.658 169.752 166.658C164.402 166.658 160.351 167.602 157.598 169.49C154.923 171.378 153.586 173.856 153.586 176.924C153.586 179.284 154.333 181.172 155.828 182.588C157.401 184.004 159.328 185.066 161.61 185.774C163.891 186.403 167.038 187.072 171.05 187.78C176.006 188.724 179.978 189.668 182.968 190.612C185.957 191.556 188.514 193.169 190.638 195.45C192.762 197.731 193.824 200.878 193.824 204.89C193.824 210.318 191.542 214.645 186.98 217.87C182.496 221.017 176.242 222.59 168.218 222.59Z" fill="white"/>
</svg>
